<svg xmlns="http://www.w3.org/2000/svg" viewBox="0 0 120 120">
  <rect width="120" height="120" rx="24" fill="#0e1613" />
  <g transform="translate(0 20)" fill="#e8a33d">
    <!-- tail -->
    <path d="M2 56 L36 49 L36 62 Z" />
    <!-- body -->
    <ellipse cx="52" cy="54" rx="22" ry="13" />
    <!-- tall neck -->
    <path d="M62 47 C71 37 77 25 79 10 L90 12 C88 28 82 41 73 52 Z" />
    <!-- small head -->
    <ellipse cx="86" cy="9" rx="8" ry="5.5" />
    <circle cx="89" cy="8" r="1.6" fill="#0e1613" />
    <!-- legs — front longer, giraffe stance -->
    <path opacity="0.65" d="M42 60 h8 l-1 15 h-7 Z" />
    <path opacity="0.65" d="M62 58 h8 l-1 17 h-7 Z" />
    <path d="M34 61 h9 v14 h-9 Z" />
    <path d="M55 59 h9 v16 h-9 Z" />
  </g>
</svg>
